<svg width="330" height="210" viewBox="0 0 330 210" fill="none" xmlns="http://www.w3.org/2000/svg">
<g filter="url(#filter0_i_47_14)">
<rect width="330" height="210" rx="30" fill="white"/>
<path d="M0 30C0 13.4315 13.4315 0 30 0H139V105H0V30Z" fill="#0A3161"/>
<path d="M139 0H300C316.569 0 330 13.4315 330 30V42H139V0Z" fill="#B31942"/>
<rect x="139" y="63" width="191" height="42" fill="#B31942"/>
<rect y="122" width="330" height="42" fill="#B31942"/>
<path d="M0 180H330C330 196.569 316.569 210 300 210H30C13.4314 210 0 196.569 0 180Z" fill="#B31942"/>
<path d="M69.5 11L78.3683 38.2938L107.067 38.2938L83.8492 55.1623L92.7175 82.4562L69.5 65.5877L46.2825 82.4562L55.1508 55.1623L31.9333 38.2938L60.6317 38.2938L69.5 11Z" fill="white"/>
</g>
<defs>
<filter id="filter0_i_47_14" x="0" y="0" width="330" height="217" filterUnits="userSpaceOnUse" color-interpolation-filters="sRGB">
<feFlood flood-opacity="0" result="BackgroundImageFix"/>
<feBlend mode="normal" in="SourceGraphic" in2="BackgroundImageFix" result="shape"/>
<feColorMatrix in="SourceAlpha" type="matrix" values="0 0 0 0 0 0 0 0 0 0 0 0 0 0 0 0 0 0 127 0" result="hardAlpha"/>
<feOffset dy="7"/>
<feGaussianBlur stdDeviation="15"/>
<feComposite in2="hardAlpha" operator="arithmetic" k2="-1" k3="1"/>
<feColorMatrix type="matrix" values="0 0 0 0 0 0 0 0 0 0 0 0 0 0 0 0 0 0 0.25 0"/>
<feBlend mode="normal" in2="shape" result="effect1_innerShadow_47_14"/>
</filter>
</defs>
</svg>
